<svg width="597" height="134" viewBox="0 0 597 134" fill="none" xmlns="http://www.w3.org/2000/svg">
<path d="M28.2 131.8C27.7 131.1 23.3 117.5 18.5 101.5C13.7 85.6 7.50002 65 4.80002 55.8C0.60002 42 -0.0999834 38.8 1.00002 37.5C1.90002 36.4 4.40001 36 11.4 36C16.4 36 21.1 36.4 21.9 36.9C22.7 37.4 24.8 42.9 26.6 49.2C31.7 67.3 42.8 105.5 46.6 118.3C49.5 127.8 50 130.3 49 131.5C47.4 133.5 29.8 133.7 28.2 131.8Z" fill="#ffff"/>
<path d="M91.2 131.7C90.6 131 85.3 114 79.6 93.9C73.8 73.9 67.9 53.4 66.4 48.4C64.9 43.4 64 38.5 64.3 37.6C64.8 36.3 66.6 36 74.8 36C82 36 85.1 36.4 85.9 37.4C86.5 38.1 89.2 46.6 91.9 56.1C94.6 65.7 100.2 85.4 104.5 100C108.8 114.5 112.3 127.8 112.4 129.5L112.5 132.5L102.4 132.8C94.9 133 92 132.7 91.2 131.7Z" fill="#ffff"/>
<path d="M154.7 132.4C154.3 132 154 128.4 154 124.4C154 118.2 154.3 116.9 155.9 116C157.1 115.4 166.3 115 179 115H200.2L203.1 112.1C208.3 106.8 206.3 97.9001 199.3 95.2001C197.8 94.6001 191.3 94.0001 185 93.7001C175.9 93.4001 172.4 92.8001 168.2 91.0001C162 88.3001 155.9 81.9001 154.2 76.2001C152.7 71.2001 152.7 57.9001 154.2 52.9001C155.8 47.3001 161.1 41.6001 167.2 38.9001C172.2 36.7001 174 36.6001 195.6 36.2001C212 35.9001 219.4 36.1001 220.9 37.0001C222.9 38.0001 223.1 38.8001 222.8 45.8001L222.5 53.5001L200 54.0001C176 54.5001 174.3 54.9001 172.1 59.7001C169.6 65.2001 171.5 71.5001 176.3 74.2001C177.5 74.8001 184.6 75.7001 192.1 76.0001C204.2 76.5001 206.3 76.9001 211.3 79.4001C220.6 83.9001 225.2 92.0001 225.2 104C225.2 117.2 221 124.9 211.3 129.6L205.5 132.5L180.5 132.8C166.7 133 155.1 132.8 154.7 132.4Z" fill="#ffff"/>
<path d="M260.8 132C252.6 129.5 247.3 124.5 244.3 116.7C241.9 110.5 241 13.1001 243.3 11.2001C244.3 10.3001 247.6 10.0001 253.2 10.2001L261.5 10.5001L261.8 22.4001C262 29.8001 262.5 34.9001 263.3 35.8001C264.2 37.0001 266.5 37.1001 275 36.5001C280.8 36.2001 286.3 36.2001 287.3 36.5001C288.7 37.1001 289 38.5001 289 45.6001V54.0001H276.7C268.5 54.0001 264 54.4001 263.2 55.2001C261.7 56.7001 261.5 101.8 263 107.2C264.7 113.2 268.2 115 278.7 115C283.5 115 288.1 115.4 288.8 115.9C289.7 116.4 290 118.9 289.8 124.6L289.5 132.5L276.5 132.7C269.4 132.8 262.3 132.5 260.8 132Z" fill="#ffff"/>
<path d="M324.5 132.1C315.3 129.8 308.5 123.6 305.1 114.5C303.2 109.4 303 106.9 303 85.5C303 60.2 303.5 56.7 308.7 48.8C311.6 44.4 318.6 39.5 324.4 37.7C329.8 36.1 356.2 36.1 361.6 37.7C363.8 38.4 367.5 40.2 369.8 41.8C379.6 48.4 383 57.6 383 78.1C383 90.7 382.8 92 381.1 93C379.9 93.6 368.5 94 351.1 94H323V100.5C323 106.5 323.3 107.3 326.4 110.8L329.8 114.5L349.2 114.8C359.8 114.9 369.5 115.3 370.8 115.5C373 116 373.1 116.4 372.8 124.3L372.5 132.5L350 132.7C337.6 132.7 326.2 132.5 324.5 132.1ZM362.5 70C362.5 58.3 357.2 54 342.8 54C329 54 323 58.9 323 70C323 73.1 323.3 76 323.7 76.4C324.1 76.7 333 76.9 343.4 76.8L362.5 76.5V70Z" fill="#ffff"/>
<path d="M418.9 131.5C410 128.2 403.9 122.2 400.3 113C398.8 109.2 398.6 105 398.6 85C398.5 62.6 398.7 61.2 400.9 55.5C403.9 48 410.7 41 417.6 38.5C421.4 37.2 426.9 36.7 441.7 36.3C452.2 36 462 36 463.5 36.4C466.1 37.1 466.1 37.1 465.8 45.3L465.5 53.5L447 54.3C425.1 55.2 422.8 55.9 419.9 62.6C418 66.7 417.9 68.8 418.2 86.5C418.5 104.2 418.7 106.1 420.6 108.6C425.4 115.1 426.1 115.3 446.5 115.4C467.7 115.5 467 115.2 467 124.2C467 133.7 468.7 133 444.1 132.9C428.7 132.9 421.5 132.5 418.9 131.5Z" fill="#ffff"/>
<path d="M483.7 131.6C483.4 130.8 483.1 101.7 483.1 66.9001C483 21.6001 483.3 3.30007 484.1 2.40007C485.5 0.700074 501.5 0.40008 502.5 2.00008C502.9 2.60008 503.1 11.3001 503 21.5001C503 31.6001 503.3 40.1001 503.8 40.4001C504.3 40.7001 506.7 39.9001 509.1 38.7001C513 36.8001 515 36.5001 526.5 36.5001C538 36.5001 540.1 36.8001 544.7 38.9001C551.2 41.8001 558.1 49.0001 560.6 55.5001C562.3 60.1001 562.5 63.4001 562.5 96.5001V132.5H553H543.5L543 99.0001C542.7 77.0001 542.1 64.6001 541.4 63.0001C539.9 59.7001 536.2 56.4001 532.7 55.1001C527.6 53.1001 516.9 53.7001 512 56.3001C504.5 60.1001 504.4 60.4001 503.6 98.1001C503.3 116.3 502.7 131.7 502.4 132.1C502.1 132.6 497.9 133 493 133C486.3 133 484.1 132.7 483.7 131.6Z" fill="#ffff"/>
<path d="M118 123.9C118 119.7 117.7 118.7 116 118.3C113.6 117.7 114.4 116 117.1 116C118.8 116 119 116.7 119 122.5C119 126.1 118.8 129 118.5 129C118.2 129 118 126.7 118 123.9Z" fill="url(#paint0_linear_5111_26)"/>
<path d="M53.7001 123.5C54.0001 120 53.8001 118.9 52.6001 118.4C50.3001 117.5 50.6001 116 53.0001 116C54.8001 116 55.0001 116.7 55.0001 122C55.0001 125.3 54.6001 128 54.1001 128C53.6001 128 53.4001 126 53.7001 123.5Z" fill="url(#paint1_linear_5111_26)"/>
<path d="M51.1001 108.1C49.9001 105.9 49.7001 101.7 50.6001 98.3C51.1001 96.5 52.0001 96 54.5001 96C59.0001 96 60.2001 97.9 59.8001 104.2L59.5001 109.5L55.8001 109.8C53.0001 110 51.9001 109.7 51.1001 108.1ZM57.8001 107.8C59.5001 106.1 59.3001 99.5 57.5001 98C56.7001 97.4 55.2001 97.1 54.0001 97.5C52.4001 98 52.0001 99 52.0001 103C52.0001 107.6 52.7001 108.7 55.6001 108.9C56.1001 109 57.1001 108.5 57.8001 107.8Z" fill="url(#paint2_linear_5111_26)"/>
<path d="M114.4 108.6C114.1 107.9 114 104.8 114.2 101.9C114.5 97.1 114.8 96.5 116.9 96.2C118.1 96 120.3 96.1 121.6 96.4C123.8 97 124 97.6 124 102.3C124 105.2 123.5 108.1 122.8 108.8C121.1 110.5 115.1 110.3 114.4 108.6ZM121.5 107.4C123.6 105.3 123.1 99.1 120.8 97.6C118 95.9 115.6 98.1 115.2 102.4C114.7 108.2 118 110.9 121.5 107.4Z" fill="url(#paint3_linear_5111_26)"/>
<path d="M56.9001 90.3C54.8001 89.8 53.8001 84.7 54.8001 80C55.5001 77 56.0001 76.5 58.9001 76.2C63.6001 75.7 65.0001 77.4 65.0001 83.6C65.0001 90.2 62.9001 91.9 56.9001 90.3ZM63.1001 86.3C65.2001 80.7 61.2001 74.9 57.5001 78C56.0001 79.3 55.4001 87.1 56.7001 88.3C58.4001 90.1 62.1001 88.9 63.1001 86.3Z" fill="url(#paint4_linear_5111_26)"/>
<path d="M120.2 90.1C119.3 89.6 119 87.4 119.2 82.9C119.5 77 119.7 76.5 121.9 76.2C123.1 76 125.3 76.1 126.6 76.4C128.8 77 129 77.5 129 83C129 87.8 128.6 89.1 127.1 90C124.8 91.2 122 91.3 120.2 90.1ZM126.1 89C127.5 88.2 128 86.9 128 83.6C128 78.7 126.3 76.7 122.8 77.2C120.8 77.5 120.5 78.1 120.2 83.2C120 87.9 120.2 88.9 121.7 89.3C122.7 89.6 123.6 89.8 123.8 89.9C124 89.9 125 89.5 126.1 89Z" fill="url(#paint5_linear_5111_26)"/>
<path d="M63 65.2C63 59.6 62.7 58.8 60.8 58C58.5 57.1 58.6 57.1 61.1 57.1C63.6 57 63.8 57.3 64.3 63.3C64.6 66.7 64.4 69.9 63.9 70.5C63.4 71 63 69 63 65.2Z" fill="url(#paint6_linear_5111_26)"/>
<path d="M124.2 69.8001C122.9 68.5001 122.6 60.2002 123.8 58.4002C125 56.6002 128.6 55.9002 131.4 56.9002C133.8 57.9002 134 58.4001 134 63.3001C134 66.2001 133.5 69.1001 132.8 69.8001C131.2 71.4001 125.8 71.4001 124.2 69.8001ZM130.9 69.1002C132.3 68.2002 132.8 61.1002 131.6 59.1002C130.5 57.4002 126 57.8002 125.3 59.7002C122.8 66.2002 126.3 72.0002 130.9 69.1002Z" fill="url(#paint7_linear_5111_26)"/>
<path d="M128.723 49.8626C127.623 48.0626 127.823 38.8626 129.023 37.6626C129.523 37.1626 131.723 36.8626 133.823 37.0626L137.723 37.3626V43.8626V50.3626L133.523 50.6626C131.223 50.8626 129.123 50.4626 128.723 49.8626ZM136.023 48.6626C137.323 47.3626 137.623 42.0626 136.623 39.4626C136.223 38.5626 134.823 37.8626 133.223 37.8626C130.123 37.8626 129.223 39.3626 129.223 44.2626C129.223 47.7626 130.723 49.8626 133.223 49.8626C134.123 49.8626 135.323 49.3626 136.023 48.6626Z" fill="url(#paint8_linear_5111_26)"/>
<path d="M147 45C147 40.3 146.7 39 145.5 39C144.7 39 144 38.6 144 38.1C144 37.1 147.6 36 148.4 36.8C149.4 37.8 149 51 148 51C147.4 51 147 48.3 147 45Z" fill="url(#paint9_linear_5111_26)"/>
<circle cx="587.5" cy="123.5" r="9.5" fill="url(#paint10_linear_5111_26)"/>
<defs>
<linearGradient id="paint0_linear_5111_26" x1="116.786" y1="116" x2="116.786" y2="129" gradientUnits="userSpaceOnUse">
<stop stop-color="#FF8660"/>
<stop offset="1" stop-color="#D5491D"/>
</linearGradient>
<linearGradient id="paint1_linear_5111_26" x1="53.014" y1="116" x2="53.014" y2="128" gradientUnits="userSpaceOnUse">
<stop stop-color="#FF8660"/>
<stop offset="1" stop-color="#D5491D"/>
</linearGradient>
<linearGradient id="paint2_linear_5111_26" x1="54.9564" y1="96" x2="54.9564" y2="109.855" gradientUnits="userSpaceOnUse">
<stop stop-color="#FF8660"/>
<stop offset="1" stop-color="#D5491D"/>
</linearGradient>
<linearGradient id="paint3_linear_5111_26" x1="119.048" y1="96.0959" x2="119.048" y2="109.979" gradientUnits="userSpaceOnUse">
<stop stop-color="#FF8660"/>
<stop offset="1" stop-color="#D5491D"/>
</linearGradient>
<linearGradient id="paint4_linear_5111_26" x1="59.7049" y1="76.1179" x2="59.7049" y2="90.8608" gradientUnits="userSpaceOnUse">
<stop stop-color="#FF8660"/>
<stop offset="1" stop-color="#D5491D"/>
</linearGradient>
<linearGradient id="paint5_linear_5111_26" x1="124.07" y1="76.0959" x2="124.07" y2="90.9516" gradientUnits="userSpaceOnUse">
<stop stop-color="#FF8660"/>
<stop offset="1" stop-color="#D5491D"/>
</linearGradient>
<linearGradient id="paint6_linear_5111_26" x1="61.7939" y1="57.0864" x2="61.7939" y2="70.5757" gradientUnits="userSpaceOnUse">
<stop stop-color="#FF8660"/>
<stop offset="1" stop-color="#D5491D"/>
</linearGradient>
<linearGradient id="paint7_linear_5111_26" x1="128.522" y1="56.4424" x2="128.522" y2="71.0001" gradientUnits="userSpaceOnUse">
<stop stop-color="#FF8660"/>
<stop offset="1" stop-color="#D5491D"/>
</linearGradient>
<linearGradient id="paint8_linear_5111_26" x1="132.861" y1="37" x2="132.861" y2="50.7147" gradientUnits="userSpaceOnUse">
<stop stop-color="#FF8660"/>
<stop offset="1" stop-color="#D5491D"/>
</linearGradient>
<linearGradient id="paint9_linear_5111_26" x1="146.49" y1="36.5247" x2="146.49" y2="51" gradientUnits="userSpaceOnUse">
<stop stop-color="#FF8660"/>
<stop offset="1" stop-color="#D5491D"/>
</linearGradient>
<linearGradient id="paint10_linear_5111_26" x1="587.5" y1="114" x2="587.5" y2="133" gradientUnits="userSpaceOnUse">
<stop stop-color="#FF8660"/>
<stop offset="1" stop-color="#D5491D"/>
</linearGradient>
</defs>
</svg>
