<svg width="253" height="98" viewBox="0 0 253 98" fill="none" xmlns="http://www.w3.org/2000/svg">
<path d="M27.6639 95.8513C27.1639 95.1513 22.7639 81.5513 17.9639 65.5513C13.1639 49.6513 6.96389 29.0513 4.26389 19.8513C0.0638871 6.05126 -0.636116 2.85127 0.463884 1.55127C1.36388 0.45127 3.86388 0.0512695 10.8639 0.0512695C15.8639 0.0512695 20.5639 0.451263 21.3639 0.951263C22.1639 1.45126 24.2639 6.95128 26.0639 13.2513C31.1639 31.3513 42.2639 69.5513 46.0639 82.3513C48.9639 91.8513 49.4639 94.3513 48.4639 95.5513C46.8639 97.5513 29.2639 97.7513 27.6639 95.8513Z" fill="#FFFF"/>
<path d="M90.6639 95.7513C90.0639 95.0513 84.7639 78.0513 79.0639 57.9513C73.2639 37.9513 67.3639 17.4513 65.8639 12.4513C64.3639 7.45126 63.4639 2.55128 63.7639 1.65128C64.2639 0.351276 66.0639 0.0512695 74.2639 0.0512695C81.4639 0.0512695 84.5639 0.451263 85.3639 1.45126C85.9639 2.15126 88.6639 10.6513 91.3639 20.1513C94.0639 29.7513 99.6639 49.4513 103.964 64.0513C108.264 78.5513 111.764 91.8513 111.864 93.5513L111.964 96.5513L101.864 96.8513C94.3639 97.0513 91.4639 96.7513 90.6639 95.7513Z" fill="#FFFF"/>
<path d="M154.164 96.4514C153.764 96.0514 153.464 92.4514 153.464 88.4514C153.464 82.2514 153.764 80.9514 155.364 80.0514C156.564 79.4514 165.764 79.0514 178.464 79.0514H199.664L202.564 76.1514C207.764 70.8514 205.764 61.9514 198.764 59.2514C197.264 58.6514 190.764 58.0514 184.464 57.7514C175.364 57.4514 171.864 56.8514 167.664 55.0514C161.464 52.3514 155.364 45.9514 153.664 40.2514C152.164 35.2514 152.164 21.9514 153.664 16.9514C155.264 11.3514 160.564 5.65136 166.664 2.95136C171.664 0.751357 173.464 0.651375 195.064 0.251375C211.464 -0.048625 218.864 0.151363 220.364 1.05136C222.364 2.05136 222.564 2.85135 222.264 9.85135L221.964 17.5514L199.464 18.0514C175.464 18.5514 173.764 18.9514 171.564 23.7514C169.064 29.2514 170.964 35.5514 175.764 38.2514C176.964 38.8514 184.064 39.7514 191.564 40.0514C203.664 40.5514 205.764 40.9514 210.764 43.4514C220.064 47.9514 224.664 56.0514 224.664 68.0514C224.664 81.2514 220.464 88.9513 210.764 93.6513L204.964 96.5514L179.964 96.8513C166.164 97.0513 154.564 96.8514 154.164 96.4514Z" fill="#FFFF"/>
<path d="M117.464 87.9513C117.464 83.7513 117.164 82.7513 115.464 82.3513C113.064 81.7513 113.864 80.0513 116.564 80.0513C118.264 80.0513 118.464 80.7513 118.464 86.5513C118.464 90.1513 118.264 93.0513 117.964 93.0513C117.664 93.0513 117.464 90.7513 117.464 87.9513Z" fill="url(#paint0_linear_5132_358)"/>
<path d="M53.1639 87.5513C53.4639 84.0513 53.264 82.9513 52.064 82.4513C49.764 81.5513 50.0639 80.0513 52.4639 80.0513C54.2639 80.0513 54.4639 80.7513 54.4639 86.0513C54.4639 89.3513 54.064 92.0513 53.564 92.0513C53.064 92.0513 52.8639 90.0513 53.1639 87.5513Z" fill="url(#paint1_linear_5132_358)"/>
<path d="M50.564 72.1513C49.364 69.9513 49.164 65.7513 50.064 62.3513C50.564 60.5513 51.464 60.0513 53.964 60.0513C58.464 60.0513 59.664 61.9513 59.264 68.2513L58.964 73.5513L55.264 73.8513C52.464 74.0513 51.364 73.7513 50.564 72.1513ZM57.264 71.8513C58.964 70.1513 58.764 63.5513 56.964 62.0513C56.164 61.4513 54.664 61.1513 53.464 61.5513C51.864 62.0513 51.464 63.0513 51.464 67.0513C51.464 71.6513 52.164 72.7513 55.064 72.9513C55.564 73.0513 56.564 72.5513 57.264 71.8513Z" fill="url(#paint2_linear_5132_358)"/>
<path d="M113.864 72.6513C113.564 71.9513 113.464 68.8513 113.664 65.9513C113.964 61.1513 114.264 60.5513 116.364 60.2513C117.564 60.0513 119.764 60.1513 121.064 60.4513C123.264 61.0513 123.464 61.6512 123.464 66.3512C123.464 69.2512 122.964 72.1512 122.264 72.8512C120.564 74.5512 114.564 74.3513 113.864 72.6513ZM120.964 71.4513C123.064 69.3513 122.564 63.1513 120.264 61.6513C117.464 59.9513 115.064 62.1513 114.664 66.4513C114.164 72.2513 117.464 74.9513 120.964 71.4513Z" fill="url(#paint3_linear_5132_358)"/>
<path d="M56.3639 54.3513C54.2639 53.8513 53.2639 48.7513 54.2639 44.0513C54.9639 41.0513 55.4639 40.5513 58.3639 40.2513C63.0639 39.7513 64.4639 41.4513 64.4639 47.6513C64.4639 54.2513 62.3639 55.9513 56.3639 54.3513ZM62.5639 50.3513C64.6639 44.7513 60.6639 38.9513 56.9639 42.0513C55.4639 43.3513 54.8639 51.1513 56.1639 52.3513C57.8639 54.1513 61.5639 52.9513 62.5639 50.3513Z" fill="url(#paint4_linear_5132_358)"/>
<path d="M119.664 54.1513C118.764 53.6513 118.464 51.4513 118.664 46.9513C118.964 41.0513 119.164 40.5513 121.364 40.2513C122.564 40.0513 124.764 40.1513 126.064 40.4513C128.264 41.0513 128.464 41.5513 128.464 47.0513C128.464 51.8513 128.064 53.1513 126.564 54.0513C124.264 55.2513 121.464 55.3513 119.664 54.1513ZM125.564 53.0513C126.964 52.2513 127.464 50.9513 127.464 47.6513C127.464 42.7513 125.764 40.7513 122.264 41.2513C120.264 41.5513 119.964 42.1513 119.664 47.2513C119.464 51.9513 119.664 52.9512 121.164 53.3512C122.164 53.6512 123.064 53.8513 123.264 53.9513C123.464 53.9513 124.464 53.5513 125.564 53.0513Z" fill="url(#paint5_linear_5132_358)"/>
<path d="M62.4638 29.2513C62.4638 23.6513 62.1638 22.8513 60.2638 22.0513C57.9638 21.1513 58.0638 21.1513 60.5638 21.1513C63.0638 21.0513 63.2638 21.3513 63.7638 27.3513C64.0638 30.7513 63.8638 33.9513 63.3638 34.5513C62.8638 35.0513 62.4638 33.0513 62.4638 29.2513Z" fill="url(#paint6_linear_5132_358)"/>
<path d="M123.664 33.8512C122.364 32.5512 122.064 24.2512 123.264 22.4512C124.464 20.6512 128.064 19.9512 130.864 20.9512C133.264 21.9512 133.464 22.4512 133.464 27.3512C133.464 30.2512 132.964 33.1512 132.264 33.8512C130.664 35.4512 125.264 35.4512 123.664 33.8512ZM130.364 33.1512C131.764 32.2512 132.264 25.1512 131.064 23.1512C129.964 21.4512 125.464 21.8512 124.764 23.7512C122.264 30.2512 125.764 36.0512 130.364 33.1512Z" fill="url(#paint7_linear_5132_358)"/>
<path d="M128.187 13.9139C127.087 12.1139 127.287 2.91389 128.487 1.71389C128.987 1.21389 131.187 0.913919 133.287 1.11392L137.187 1.41391V7.91391V14.4139L132.987 14.7139C130.687 14.9139 128.587 14.5139 128.187 13.9139ZM135.487 12.7139C136.787 11.4139 137.087 6.11391 136.087 3.51391C135.687 2.61391 134.287 1.91391 132.687 1.91391C129.587 1.91391 128.687 3.4139 128.687 8.3139C128.687 11.8139 130.187 13.9139 132.687 13.9139C133.587 13.9139 134.787 13.4139 135.487 12.7139Z" fill="url(#paint8_linear_5132_358)"/>
<path d="M146.464 9.05127C146.464 4.35127 146.164 3.05127 144.964 3.05127C144.164 3.05127 143.464 2.65128 143.464 2.15128C143.464 1.15128 147.064 0.0512584 147.864 0.851258C148.864 1.85126 148.464 15.0513 147.464 15.0513C146.864 15.0513 146.464 12.3513 146.464 9.05127Z" fill="url(#paint9_linear_5132_358)"/>
<circle cx="243.164" cy="87.5513" r="9.5" fill="url(#paint10_linear_5132_358)"/>
<defs>
<linearGradient id="paint0_linear_5132_358" x1="116.25" y1="80.0513" x2="116.25" y2="93.0513" gradientUnits="userSpaceOnUse">
<stop stop-color="#FF8660"/>
<stop offset="1" stop-color="#D5491D"/>
</linearGradient>
<linearGradient id="paint1_linear_5132_358" x1="52.4778" y1="80.0513" x2="52.4778" y2="92.0513" gradientUnits="userSpaceOnUse">
<stop stop-color="#FF8660"/>
<stop offset="1" stop-color="#D5491D"/>
</linearGradient>
<linearGradient id="paint2_linear_5132_358" x1="54.4203" y1="60.0513" x2="54.4203" y2="73.906" gradientUnits="userSpaceOnUse">
<stop stop-color="#FF8660"/>
<stop offset="1" stop-color="#D5491D"/>
</linearGradient>
<linearGradient id="paint3_linear_5132_358" x1="118.512" y1="60.1472" x2="118.512" y2="74.0307" gradientUnits="userSpaceOnUse">
<stop stop-color="#FF8660"/>
<stop offset="1" stop-color="#D5491D"/>
</linearGradient>
<linearGradient id="paint4_linear_5132_358" x1="59.1687" y1="40.1692" x2="59.1687" y2="54.9121" gradientUnits="userSpaceOnUse">
<stop stop-color="#FF8660"/>
<stop offset="1" stop-color="#D5491D"/>
</linearGradient>
<linearGradient id="paint5_linear_5132_358" x1="123.534" y1="40.1472" x2="123.534" y2="55.0028" gradientUnits="userSpaceOnUse">
<stop stop-color="#FF8660"/>
<stop offset="1" stop-color="#D5491D"/>
</linearGradient>
<linearGradient id="paint6_linear_5132_358" x1="61.2578" y1="21.1377" x2="61.2578" y2="34.627" gradientUnits="userSpaceOnUse">
<stop stop-color="#FF8660"/>
<stop offset="1" stop-color="#D5491D"/>
</linearGradient>
<linearGradient id="paint7_linear_5132_358" x1="127.986" y1="20.4934" x2="127.986" y2="35.0512" gradientUnits="userSpaceOnUse">
<stop stop-color="#FF8660"/>
<stop offset="1" stop-color="#D5491D"/>
</linearGradient>
<linearGradient id="paint8_linear_5132_358" x1="132.325" y1="1.05127" x2="132.325" y2="14.7659" gradientUnits="userSpaceOnUse">
<stop stop-color="#FF8660"/>
<stop offset="1" stop-color="#D5491D"/>
</linearGradient>
<linearGradient id="paint9_linear_5132_358" x1="145.953" y1="0.575928" x2="145.953" y2="15.0513" gradientUnits="userSpaceOnUse">
<stop stop-color="#FF8660"/>
<stop offset="1" stop-color="#D5491D"/>
</linearGradient>
<linearGradient id="paint10_linear_5132_358" x1="243.164" y1="78.0513" x2="243.164" y2="97.0513" gradientUnits="userSpaceOnUse">
<stop stop-color="#FF8660"/>
<stop offset="1" stop-color="#D5491D"/>
</linearGradient>
</defs>
</svg>
