<svg width="45" height="41" viewBox="0 0 45 41" fill="none" xmlns="http://www.w3.org/2000/svg">
<path d="M16.8343 19.4201H27.5411C30.5216 19.4201 32.8694 17.1665 32.8694 14.492V5.37077C32.8694 2.77464 30.4342 0.824272 27.525 0.391147C25.6839 0.117163 23.7815 -0.00752457 21.9485 0.000350429C20.1162 0.0078973 18.4191 0.14735 16.8795 0.391147C12.3429 1.10679 11.5725 2.60632 11.5725 5.37077V8.9201H22.2209V10.2326H7.45119C4.33597 10.2326 1.60777 11.9087 0.754797 15.0925C-0.229633 18.7412 -0.273328 20.9721 0.754797 24.782C1.51671 27.6176 3.33612 29.592 6.4517 29.592H10.1038V25.3106C10.1038 22.1485 13.1984 19.4201 16.8343 19.4201ZM16.1594 6.58713C15.0483 6.58713 14.148 5.77371 14.148 4.76767C14.148 3.75738 15.0479 2.93641 16.1594 2.93641C17.2665 2.93641 18.1712 3.75738 18.1712 4.76767C18.1709 5.77371 17.2661 6.58713 16.1594 6.58713ZM43.621 15.0925C42.8506 12.3205 41.38 10.2326 38.2604 10.2326H34.3381V14.492C34.3381 17.7896 31.1091 20.4045 27.5411 20.4045H16.8343C13.9012 20.4045 11.5725 22.8083 11.5725 25.4333V34.5552C11.5725 37.1507 14.0492 38.6778 16.8828 39.4226C20.2763 40.3141 23.4899 40.4752 27.5499 39.4226C30.2484 38.724 32.8694 37.319 32.8694 34.5552V30.9045H22.2209V29.592H38.2604C41.3756 29.592 42.5371 27.6967 43.621 24.7817C44.7398 21.781 44.6917 18.9414 43.621 15.0925ZM28.2156 33.3382C29.3271 33.3382 30.2275 34.1516 30.2275 35.1583C30.2275 36.1676 29.3275 36.9889 28.2156 36.9889C27.1086 36.9889 26.2042 36.1679 26.2042 35.1583C26.2042 34.1516 27.1086 33.3382 28.2156 33.3382Z" fill="url(#paint0_linear_3051_3)"/>
<defs>
<linearGradient id="paint0_linear_3051_3" x1="22.2211" y1="0" x2="22.2211" y2="40.1529" gradientUnits="userSpaceOnUse">
<stop stop-color="#FDFDFD"/>
<stop offset="1" stop-color="white" stop-opacity="0.18"/>
</linearGradient>
</defs>
</svg>
