<svg width="47" height="42" viewBox="0 0 47 42" fill="none" xmlns="http://www.w3.org/2000/svg">
<path d="M0.442627 20.9705V41.4783H46.3411V0.462646H0.442627V20.9705ZM37.4294 19.3298C38.5287 19.5578 39.5279 20.0716 40.3008 20.8064C40.7263 21.2023 41.0963 21.643 41.4024 22.1189C41.4024 22.1714 39.4196 23.3691 38.2115 24.0384C38.1675 24.0647 37.9912 23.8941 37.7966 23.6348C37.5761 23.2948 37.2627 23.0102 36.8858 22.8077C36.5089 22.6051 36.0807 22.4912 35.6412 22.4766C34.2496 22.3912 33.3536 23.0442 33.361 24.1172C33.3495 24.3843 33.4179 24.6494 33.5593 24.885C33.864 25.4526 34.4332 25.7906 36.2177 26.4797C39.504 27.743 40.9104 28.5764 41.7843 29.7609C42.761 31.0734 42.9776 33.1931 42.3167 34.7616C41.5823 36.4678 39.7831 37.6261 37.2385 38.01C36.0763 38.1289 34.902 38.1179 33.7429 37.9772C31.9738 37.7207 30.3419 36.968 29.0833 35.828C28.661 35.4112 27.8385 34.3251 27.8899 34.2464C28.0239 34.1575 28.1651 34.0774 28.3122 34.0069L30.0012 33.1406L31.3194 32.4581L31.5948 32.8223C32.0596 33.4164 32.651 33.9227 33.3353 34.312C34.804 35.0011 36.8089 34.9059 37.8003 34.1086C38.1331 33.8164 38.3408 33.4292 38.3871 33.0143C38.4334 32.5994 38.3154 32.1831 38.0536 31.838C37.6865 31.3819 36.9521 30.998 34.8995 30.1973C32.5311 29.2851 31.5104 28.7208 30.5777 27.8217C29.9955 27.2284 29.5656 26.5285 29.3183 25.7709C29.1338 24.9055 29.1065 24.0191 29.2375 23.1459C29.7258 21.1017 31.4406 19.6744 33.9448 19.2511C35.1045 19.1229 36.2793 19.1516 37.4294 19.3364V19.3298ZM26.6561 21.0492V22.7292H20.6967V37.8984H16.4704V22.7259H10.4962V21.0853C10.4802 20.5205 10.4973 19.9554 10.5476 19.3922C10.5697 19.3659 14.2195 19.3528 18.6258 19.3594H26.6341L26.6561 21.0492Z" fill="url(#paint0_linear_5087_2)"/>
<defs>
<linearGradient id="paint0_linear_5087_2" x1="23.3918" y1="0.462646" x2="23.3918" y2="41.4783" gradientUnits="userSpaceOnUse">
<stop stop-color="#FDFDFD"/>
<stop offset="1" stop-color="white" stop-opacity="0.18"/>
</linearGradient>
</defs>
</svg>
